<?xml version="1.0" encoding="utf-8"?>
<!-- Generator: Adobe Illustrator 15.1.0, SVG Export Plug-In . SVG Version: 6.00 Build 0)  -->
<!DOCTYPE svg PUBLIC "-//W3C//DTD SVG 1.1//EN" "http://www.w3.org/Graphics/SVG/1.1/DTD/svg11.dtd">
<svg version="1.1" id="Layer_1" xmlns="http://www.w3.org/2000/svg" xmlns:xlink="http://www.w3.org/1999/xlink" x="0px" y="0px"
	 width="115px" height="105px" viewBox="0 0 115 105" enable-background="new 0 0 115 105" xml:space="preserve">
<path fill="#FFFFFF" d="M61.648,59.946l3.361,5.81H22.714L57.518,5.479l34.802,60.277H78.578l-3.354-5.811l7.027,0.001
	L57.518,17.102L32.78,59.945L61.648,59.946z M79.344,73.018L57.518,35.216L44.916,57.038h6.711l5.891-10.198l15.115,26.178H79.344z
	 M98.188,75.928H44.153l-3.355,5.811h54.036l6.086,10.539H90.462l-4.411-7.633h-6.707l7.762,13.445h23.879L98.188,75.928z
	 M38.206,68.66L24.57,92.277H14.114L20.2,81.738h7.027l3.354-5.811H16.844L4.048,98.09h23.879l16.989-29.43H38.206z"/>
</svg>
