<?xml version="1.0" encoding="utf-8"?>
<!-- Generator: Adobe Illustrator 22.0.1, SVG Export Plug-In . SVG Version: 6.00 Build 0)  -->
<svg version="1.1" id="Layer_1" xmlns="http://www.w3.org/2000/svg" xmlns:xlink="http://www.w3.org/1999/xlink" x="0px" y="0px"
	 viewBox="0 0 1854.5 1894.9" style="enable-background:new 0 0 1854.5 1894.9;" xml:space="preserve">
<style type="text/css">
	.st0{clip-path:url(#SVGID_2_);}
	.st1{clip-path:url(#SVGID_4_);}
	.st2{clip-path:url(#SVGID_6_);}
	.st3{display:none;clip-path:url(#SVGID_8_);}
	.st4{clip-path:url(#SVGID_10_);}
	.st5{clip-path:url(#SVGID_12_);}
	.st6{display:none;clip-path:url(#SVGID_14_);}
	.st7{display:none;clip-path:url(#SVGID_16_);}
	.st8{display:none;clip-path:url(#SVGID_18_);}
	.st9{display:none;clip-path:url(#SVGID_20_);}
	.st10{display:none;}
	.st11{display:inline;}
	.st12{clip-path:url(#SVGID_22_);}
	.st13{clip-path:url(#SVGID_24_);}
	.st14{clip-path:url(#SVGID_26_);}
	.st15{clip-path:url(#SVGID_28_);}
	.st16{clip-path:url(#SVGID_30_);}
	.st17{clip-path:url(#SVGID_32_);}
	.st18{display:inline;clip-path:url(#SVGID_34_);}
	.st19{display:inline;clip-path:url(#SVGID_36_);}
	.st20{display:inline;clip-path:url(#SVGID_38_);}
	.st21{display:inline;clip-path:url(#SVGID_40_);}
	.st22{display:inline;clip-path:url(#SVGID_42_);}
	.st23{display:inline;clip-path:url(#SVGID_44_);}
	.st24{display:inline;clip-path:url(#SVGID_46_);}
	.st25{display:inline;clip-path:url(#SVGID_48_);}
	.st26{display:inline;clip-path:url(#SVGID_50_);}
	.st27{display:inline;clip-path:url(#SVGID_52_);}
	.st28{display:inline;clip-path:url(#SVGID_54_);}
	.st29{display:inline;clip-path:url(#SVGID_56_);}
	.st30{clip-path:url(#SVGID_58_);}
</style>
<g>
	<g>
		<defs>
			<rect id="SVGID_1_" y="0" width="1854.5" height="1894.9"/>
		</defs>
		<clipPath id="SVGID_2_">
			<use xlink:href="#SVGID_1_"  style="overflow:visible;"/>
		</clipPath>
		<path class="st0" d="M603.2,774.4c0.1-179.2,145.8-324.3,326-323.7c178.3,0.6,323,145.2,322.9,324.6
			c-0.2,179.1-145.4,323.8-324.5,323.8C748.3,1099.1,603,953.7,603.2,774.4 M1194.3,774.7c-0.4-146-117.5-266.3-266.6-266.3
			c-151.2,0-266.6,122.9-266.6,266.3c0,148.5,121.3,266.8,266.9,266.7C1071.2,1041.2,1193.8,925.5,1194.3,774.7"/>
	</g>
	<g>
		<defs>
			<rect id="SVGID_3_" y="0" width="1854.5" height="1894.9"/>
		</defs>
		<clipPath id="SVGID_4_">
			<use xlink:href="#SVGID_3_"  style="overflow:visible;"/>
		</clipPath>
		<path class="st1" d="M633.4,968.8c12.9,21.9,29.6,39.4,46.9,56.8c-0.6,0.9-1.1,1.8-1.7,2.4c-33.4,34.4-67.1,68.6-100.2,103.4
			c-57.7,60.7-114.7,122.1-174.7,180.5c-32.3,31.5-65.1,62.6-101.1,89.9c-13.5,10.3-28,19.3-42.4,28.4c-8.3,5.2-17.6,8.8-27.5,10.1
			c-0.9,0.1-1.9,0.4-2.8,0.4c-12.6-0.3-16.4-3.4-16.1-14.8c0.2-6.6,1.4-13.5,4-19.5c4.6-10.5,9.9-20.8,16.1-30.5
			c15.3-24.2,33.9-45.9,52.9-67.2c47-52.7,97.7-101.8,148.7-150.5c59.1-56.5,118.4-112.9,177.6-169.4
			C619.7,982.5,626.1,976,633.4,968.8 M455,1205.8c-0.1-4.9-1.9-6.7-5.5-5.9c-3.2,0.7-6.6,1.6-9.4,3.3c-8.4,5-17,9.9-24.9,15.7
			c-27,19.6-51.6,42.1-75.4,65.5c-26.8,26.5-52.5,53.9-74.8,84.5c-5.1,7-9.4,14.4-13.8,21.8c-1.7,2.8-2.8,6.1-3.6,9.3
			c-1.1,4.7,1.1,7.2,5.6,6.4c3-0.6,6.1-1.5,8.8-3.1c8.2-4.9,16.6-9.6,24.3-15.2c29.6-21.4,56.3-46.2,82.1-72
			c24.9-25,48.9-50.8,69.5-79.5c5.3-7.4,9.8-15.3,14.3-23.2C453.8,1210.8,454.4,1207.6,455,1205.8"/>
	</g>
	<g>
		<defs>
			<rect id="SVGID_5_" y="0" width="1854.5" height="1894.9"/>
		</defs>
		<clipPath id="SVGID_6_">
			<use xlink:href="#SVGID_5_"  style="overflow:visible;"/>
		</clipPath>
		<path class="st2" d="M1174,1028.5c17.3-17.5,34.2-35.1,46.8-56.7c1.5,1.3,2.7,2.1,3.7,3c55,52.6,109.8,105.3,164.9,157.8
			c47.6,45.4,95.2,90.7,140.7,138.2c27.1,28.2,53.5,57.1,77,88.4c9.5,12.7,18.7,25.6,25.3,40.1c3.1,6.7,5.2,13.9,7.5,20.9
			c0.8,2.4,0.9,5.2,0.8,7.8c-0.2,12.1-3.9,15.8-17.2,15.2c-8.5-0.4-16.3-3.7-23.9-7.4c-19.1-9.3-36.1-21.7-52.7-34.8
			c-39.6-31.3-76.5-65.7-111.7-101.7c-55.3-56.6-109.8-114.1-164.8-171.1c-31.3-32.5-62.9-64.7-94.3-97
			C1175.5,1030.5,1175,1029.7,1174,1028.5 M1607,1402.9c-0.7-1.8-1.3-5-2.8-7.6c-4.4-7.7-8.8-15.4-13.9-22.6
			c-15.6-21.9-33.4-42-52-61.5c-30.6-32.2-62.6-62.8-98.5-89.2c-8.1-5.9-16.8-11-25.5-16.1c-2.8-1.7-6.2-2.7-9.4-3.3
			c-3.7-0.7-6.2,1.7-5.4,5.4c0.6,3.2,1.7,6.6,3.4,9.4c5.3,8.8,10.4,17.8,16.6,26c39.4,51.4,85,96.9,135.5,137.4
			c10.6,8.5,22.2,15.8,33.7,23.2c3.7,2.4,8.2,3.9,12.6,5.1C1605.2,1410.2,1607.1,1408.1,1607,1402.9"/>
	</g>
	<g>
		<defs>
			<rect id="SVGID_7_" y="0" width="1854.5" height="1894.9"/>
		</defs>
		<clipPath id="SVGID_8_">
			<use xlink:href="#SVGID_7_"  style="overflow:visible;"/>
		</clipPath>
		<path class="st3" d="M1100.5,1518.8c19.7,1.1,38.8,4.2,56.6,12.8c36.6,17.8,55.7,47.4,57.5,87.8c1.6,34.3-9.3,64.2-34.1,88.5
			c-19.7,19.2-43.8,28.9-70.9,31.1c-18.1,1.5-36,0.1-53.2-5.9c-37.2-13.1-59.5-39.9-68.8-77.7c-14-56.9,22.3-120,83.8-132.7
			C1081,1520.7,1090.8,1520.1,1100.5,1518.8 M1185.5,1633.5c-1.3-10.2-1.9-20.6-4-30.6c-10.9-52.4-53.2-78.5-98.4-71.3
			c-31.7,5.1-53.2,22.3-62.7,53c-8.6,27.9-7.6,56,2.6,83.4c12.7,34.2,37,54.7,73.8,59c28.6,3.4,64.2-8.2,79.4-45.5
			C1182.5,1666.1,1184.7,1650.1,1185.5,1633.5"/>
	</g>
	<g>
		<defs>
			<rect id="SVGID_9_" y="0" width="1854.5" height="1894.9"/>
		</defs>
		<clipPath id="SVGID_10_">
			<use xlink:href="#SVGID_9_"  style="overflow:visible;"/>
		</clipPath>
		<path class="st4" d="M721.7,493.8c-9.7,8.1-19.4,16.2-28.8,24C542.8,359,392.7,200.2,242.6,41.4c0.2-0.2,0.5-0.5,0.7-0.7
			C402.8,191.7,562.2,342.7,721.7,493.8"/>
	</g>
	<g>
		<defs>
			<rect id="SVGID_11_" y="0" width="1854.5" height="1894.9"/>
		</defs>
		<clipPath id="SVGID_12_">
			<use xlink:href="#SVGID_11_"  style="overflow:visible;"/>
		</clipPath>
		<path class="st5" d="M1609,46c-148.5,157.1-297.1,314.3-445.9,471.7c-9.2-7.7-18.9-15.7-28.9-24C1292,344.3,1450,194.7,1608,45.1
			C1608.4,45.4,1608.7,45.7,1609,46"/>
	</g>
	<g>
		<defs>
			<rect id="SVGID_13_" y="0" width="1854.5" height="1894.9"/>
		</defs>
		<clipPath id="SVGID_14_">
			<use xlink:href="#SVGID_13_"  style="overflow:visible;"/>
		</clipPath>
		<path class="st6" d="M1301.5,1621.3c1.9-1.8,3.2-2.9,4.3-4c22.4-22.4,44.8-44.8,67.1-67.3c3.2-3.2,6.4-6.6,9.1-10.2
			c4.3-5.7,3.8-7.7-2-12.2c-0.1,0-0.1-0.1-0.2-0.2c-0.9-1-0.5-2.6,0.7-3.2c0.8-0.4,1.6-0.8,2.4-0.8c16.3-0.1,32.6-0.1,48.9,0
			c0.4,0,0.8,0.1,1.3,0.2c2.5,0.7,2.2,4.3-0.3,4.6c-0.5,0.1-1.1,0.1-1.6,0.1c-11.1,1.4-20.9,5.8-28.9,13.3
			c-26.1,24.4-51.9,49.2-78,74c1.2,1.7,1.8,2.9,2.7,3.9c30.6,30.8,60.7,62.2,93.2,91c12.3,10.9,25.8,19,42.7,20.2
			c0.4,0,0.7,0.1,1,0.3c2.1,0.9,2,3.9-0.2,4.5c-1,0.3-2,0.3-3,0.3c-12.6-0.3-25.2-0.5-37.7-1.2c-7.6-0.5-14.9-3.2-20.9-7.9
			c-7.8-6-15.9-11.7-22.8-18.7c-24.5-25-48.6-50.5-72.8-75.8c-1.4-1.5-2.5-3.2-3.8-4.9c-0.7,0.2-0.7,0.2-1.4,0.4
			c-0.1,1.7-0.3,3.5-0.3,5.2c0.1,22.3,0.1,44.6,0.3,67c0.1,5.7,0.6,11.5,1.3,17.2c1,8.2,3.5,10.7,11.5,12.2c2.8,0.5,5.7,0.7,8.5,1.2
			c0.5,0.1,1,0.3,1.5,0.5c1.7,0.9,1.7,3.3-0.1,4.1c-0.6,0.2-1.1,0.4-1.7,0.5c-3.3,0.3-6.7,0-10.1,0c-16.3,0-32.6,0.1-48.9,0
			c-2.1,0-4.4,0.5-6.4-0.6c-1.5-0.8-1.6-3-0.2-4c0.3-0.2,0.7-0.4,1.1-0.5c1.3-0.4,2.9-0.2,4.3-0.5c7-1.2,9.2-3,10.2-10
			c1.2-8.8,2.4-17.6,2.5-26.5c0.3-46.8,0.2-93.6,0.1-140.4c0-4.1-0.5-8.1-0.9-12.2c-0.9-8.2-4.1-11.4-12.3-12.3
			c-2.4-0.3-4.8,0-7.2-0.4c-0.1,0-0.3-0.1-0.4-0.1c-2.4-0.7-2.3-4.1,0-4.9c0.2-0.1,0.4-0.1,0.6-0.2c1.6-0.3,3.3-0.1,5-0.1
			c17.7,0,35.5,0,53.2,0c2.7,0,5.4,0.6,8.1,1l0,0c0.2,0.9-0.1,1.9-0.8,2.6c-0.7,0.7-1.4,1.3-2.2,1.5c-2.1,0.5-4.3,0.2-6.4,0.7
			c-5.2,1.1-8.6,4.1-9.3,9.6c-0.4,3.3-1.1,6.7-1.1,10c-0.2,23-0.2,46.1-0.3,69.1C1301,1618.7,1301.2,1619.4,1301.5,1621.3"/>
	</g>
	<g>
		<defs>
			<rect id="SVGID_15_" y="0" width="1854.5" height="1894.9"/>
		</defs>
		<clipPath id="SVGID_16_">
			<use xlink:href="#SVGID_15_"  style="overflow:visible;"/>
		</clipPath>
		<path class="st7" d="M264.2,1733.2c0.1-0.6,0.6-1.1,1.3-1.3c2.2-0.5,4.4-1.1,6.6-1.2c5.5-0.3,8.3-3.4,9.2-8.4
			c0.8-4.5,1.7-9,1.9-13.5c0.6-14.6,1.1-29.2,1.2-43.9c0.2-34.3,0.1-68.6-0.1-102.9c0-6.9-0.5-13.9-1.1-20.8
			c-0.7-8.4-3.7-11.4-11.9-12.6c-2.9-0.4-5.7-0.8-9.2-1.3c-1.3-0.2-1.8-1.8-0.9-2.7c0.5-0.5,1-0.8,1.5-0.9c2.3-0.4,4.8-0.3,7.2-0.3
			c19.2,0,38.4-0.3,57.5,0.1c9.3,0.2,18.6,1.6,27.8,2.7c2.1,0.2,4.2,1,6.2,1.7c31.9,11,41.4,42.4,20.8,69.1c-5,6.4-11,12-16.9,18.3
			c1.4,0.7,2.7,1.5,4.1,2.1c9.4,3.8,18,8.9,25.7,15.6c32.5,28.2,21.2,72.3-5.9,90.4c-11.9,8-25,12.1-39.1,12.7
			c-11.5,0.4-23-0.5-34.5-0.6c-12-0.1-24,0-35.9,0.1c-3.6,0-7.2,0.5-10.8,0.3c-1.3-0.1-2.6-0.7-3.9-1.3
			C264.4,1734.3,264.1,1733.8,264.2,1733.2 M313,1624.6c-1.6,0.1-2.9,1.3-3.1,2.9c0,0.1,0,0.2,0,0.2c0.2,26.3,0.2,52.7,0.6,79
			c0.1,7.7,5.2,14.5,12.6,16.7c10.9,3.3,22.1,3.8,33.4,1.7c17.7-3.4,28.4-14.7,30.2-32.6c0.5-5.4,0.6-11,0.1-16.5
			c-2.5-26.2-21.4-46.3-47.4-50.2C330.8,1624.6,322,1623.8,313,1624.6 M312.7,1534.5c-1.2,0.3-2.2,1.1-2.6,2.2
			c-0.1,0.2-0.1,0.3-0.1,0.5c-0.1,23.9-0.1,47.9-0.3,71.8c0,3.7,1.9,5.1,5.3,5.2c9.6,0,19.1,0.2,28.7,0.1c6.4-0.1,11.3-3.3,15.2-8.2
			c12.6-15.6,12.7-41.7,0.2-58.3c-4.5-5.9-10.1-10.3-17.2-12.4C332.4,1532.1,322.5,1532.3,312.7,1534.5"/>
	</g>
	<g>
		<defs>
			<rect id="SVGID_17_" y="0" width="1854.5" height="1894.9"/>
		</defs>
		<clipPath id="SVGID_18_">
			<use xlink:href="#SVGID_17_"  style="overflow:visible;"/>
		</clipPath>
		<path class="st8" d="M878.5,1733c0,0.9-0.7,1.7-1.6,2c-1.4,0.4-2.9,0.9-4.3,0.9c-3.8,0.2-7.7-0.1-11.5-0.1
			c-16.1,0-32.1,0.1-48.2,0.1c-3.7,0-4.5,0-6.6-1.2c-1.3-0.8-1.4-2.6-0.1-3.4c0.3-0.2,0.6-0.4,0.9-0.4c1.8-0.5,3.8-0.5,5.7-0.7
			c5.2-0.7,8.3-3.7,8.9-8.9c1-8.1,2.4-16.2,2.5-24.3c0.3-48.5,0.2-96.9,0.2-145.4c0-3.6-0.5-7.2-0.9-10.7c-1-7.9-4-10.9-12-11.8
			c-2.4-0.3-4.8,0-7.2-0.4c-1.5-0.2-2.8-1.1-5.5-2.3c2.5-1.4,3.7-2.5,5-2.8c1.8-0.4,3.8-0.2,5.7-0.2c21.8,0,43.6-0.3,65.4,0.1
			c10.3,0.2,20.6,0.9,30.7,2.6c38.2,6.4,51.8,38,39.8,71c-8.6,23.6-26.9,36.1-50.6,41c-8.1,1.7-16.7,1.4-25,2c-1.4,0.1-3,0-4.2-0.5
			c-0.9-0.4-1.9-1.7-1.9-2.5c0-0.9,1.1-2.2,2-2.4c1.8-0.5,3.8-0.3,5.7-0.5c5.9-0.8,12-1.1,17.7-2.7c25.8-7,38.9-27.7,34.5-54.1
			c-2.1-12.5-7.5-23.1-16.8-31.8c-7.7-7.1-16.7-11.4-27.1-12c-7.8-0.4-15.7,0.7-23.6,1.1c-3.9,0.2-5.5,2.4-5.5,6.1
			c0,0.7,0,1.4,0,2.2c0.1,49.9,0.1,99.8,0.3,149.7c0,7.9,0.5,15.8,1.4,23.7c1,9.3,3.7,11.9,12.9,13.5c3.1,0.5,6.2,0.6,9.3,1.1
			c1.2,0.2,2.4,0.8,3.6,1.3C878.3,1732.2,878.5,1732.6,878.5,1733"/>
	</g>
	<g>
		<defs>
			<rect id="SVGID_19_" y="0" width="1854.5" height="1894.9"/>
		</defs>
		<clipPath id="SVGID_20_">
			<use xlink:href="#SVGID_19_"  style="overflow:visible;"/>
		</clipPath>
		<path class="st9" d="M1477.1,1735.6c-2.6-0.9-2.2-4.5,0.5-4.8c0.7-0.1,1.4-0.1,2-0.2c10-1.6,11.9-3,12.8-13.1
			c1.2-12.6,1.9-25.4,1.9-38c0.2-40.5,0.1-81.1,0-121.6c0-5.5-0.1-11.1-0.7-16.5c-1.1-8.6-4.5-11.6-13.1-12.3
			c-2.4-0.2-4.8,0-7.2-0.4c-1.2-0.2-2.2-1.3-4.9-3c3.2-1,5-2.1,6.8-2.1c6-0.1,12,0.1,18,0.2c25.9,0.3,51.8,0.7,77.7,0.7
			c7.6,0,15.1-1.2,23.5-2.1c0.8-0.1,1.5,0.7,1.4,1.5c-0.6,3.6-1.2,7.1-1.6,10.7c-0.5,4.3-0.6,8.6-1.1,12.9
			c-0.4,3.5,0.2,7.3-2.9,10.8c-0.8,0.8-2.1,0.5-2.4-0.6c-0.5-1.9-1-3.4-1.2-5c-1.1-9.7-2.8-12-12.3-14c-5.1-1.1-10.4-1.9-15.6-2.1
			c-12-0.3-24-0.1-35.9-0.1c-1.6,4.9-2.1,70.8-0.5,80.6c1.9,0.2,4,0.5,6.1,0.5c13.4-0.1,26.9-0.3,40.3-0.4
			c7.3-0.1,14.4-0.7,19.7-6.8c0.2-0.2,0.6-0.3,1-0.4c0.6-0.1,1.3,0.2,1.6,0.7c0.2,0.4,0.5,0.8,0.4,1c-1.4,12.6-2.9,25.1-4.5,37.7
			c0,0.1-0.1,0.2-0.2,0.3c-0.9,0.9-2.5,0.8-3.2-0.3c-0.8-1.2-0.4-2.9-0.6-4.2c-1.6-10.4-3.6-12.4-13.9-14.3
			c-7.2-1.3-40-1.9-47.1-0.8c-0.2,1.7-0.5,3.5-0.5,5.4c-0.1,21.4-0.1,42.7-0.1,64.1c0,2.4,0,4.9,0.3,7.3c1,8.9,8.1,15.8,16.9,16.5
			c9.1,0.7,18.3,0.7,27.4,0.7c4.3,0,8.6-0.5,12.9-1.2c10.1-1.6,16.3-7.5,18.3-17.6c0.4-1.8,1-3.5,1.6-5.3c0.6-1.6,2.7-2,3.7-0.6
			c0.8,1.1,0.8,2.5,0.6,3.8c-1.1,8.3-2.2,16.6-3.8,24.9c-1.4,6.9-3.5,8.4-10.4,8.4c-17.8-0.1-35.5-0.4-53.3-0.5
			c-16.5-0.1-33.1,0.1-49.6,0C1483.1,1735.8,1480,1736.6,1477.1,1735.6"/>
	</g>
	<g class="st10">
		<defs>
			<rect id="SVGID_21_" y="0" width="1854.5" height="1894.9"/>
		</defs>
		<clipPath id="SVGID_22_" class="st11">
			<use xlink:href="#SVGID_21_"  style="overflow:visible;"/>
		</clipPath>
		<path class="st12" d="M503.5,1630.3c0,8.2,0,16.1,0,24c0,13.4,0,26.9-0.1,40.3c0,2.9,0,5.8,0.1,8.6c0.7,14.4,5.4,19.6,19.7,20.2
			c11.3,0.5,22.7,0.5,34-0.1c11-0.6,20.3-8.6,22.4-19.4c0.3-1.6,1-3.1,1.6-4.6c0.5-1.1,1.6-1.8,2.8-1.7l0,0c0.4,1.9,1.4,3.8,1.2,5.6
			c-1,8.3-2.1,16.7-3.8,24.9c-1.3,6.7-3.5,8.3-10.6,8.2c-19.7-0.2-39.3-0.8-59-1c-14.1-0.1-28.3,0.3-42.4,0.4
			c-4.3,0-9.1,1.9-12.9-1.7c0-2.9,1.9-3,3.9-3.3c12.3-2,13.1-2.6,14.3-15.3c1-10.9,1.6-21.8,1.6-32.7c0.2-42.1,0.1-84.3,0-126.4
			c0-4.8-0.1-9.6-0.6-14.4c-0.9-8.9-4.4-12.2-13.4-12.9c-2.1-0.2-4.4,0.1-6.5-0.3c-0.9-0.2-1.8-0.7-2.7-1.2
			c-0.8-0.5-1.3-1.4-1.3-2.4l0,0c1.8-0.5,3.7-1.5,5.5-1.5c5.3-0.2,10.6,0.1,15.8,0.1c26.1,0.3,52.3,0.8,78.4,0.7
			c7.6,0,15.2-1.6,22.8-2.4l0,0c1.7-0.2,3.2,1.3,3,3c-1,10.1-2,20-3.2,29.8c-0.2,1.5-1.4,2.8-2.1,4c-3.6-0.7-3.2-3.2-3.3-5.2
			c-0.9-12.6-5-14.4-16.4-15.8c-10.2-1.3-20.5-1.3-30.8-1.7c-5.7-0.2-11.4,0-18.2,0c0,27,0,53.5,0,80.7c2.8,0.2,5,0.6,7.3,0.6
			c11-0.1,22.1-0.1,33.1-0.4c9.9-0.2,20.4,1.2,28.1-8.5c3.2,6.2-0.5,10.8-0.1,15.6c0.4,4.4-0.3,8.7-1.2,13
			c-0.9,4.4,1.2,9.8-4.4,14.5c-0.5-2.9-0.9-4.8-1.2-6.8c-1.3-9.7-3.7-12.2-13.4-13.9C543.3,1629.4,510.6,1628.9,503.5,1630.3"/>
	</g>
	<g class="st10">
		<defs>
			<rect id="SVGID_23_" y="0" width="1854.5" height="1894.9"/>
		</defs>
		<clipPath id="SVGID_24_" class="st11">
			<use xlink:href="#SVGID_23_"  style="overflow:visible;"/>
		</clipPath>
		<path class="st13" d="M743,1524.4c-0.5,12.4-1,23.9-1.6,35.3c0,0.2-0.1,0.3-0.1,0.5c-0.7,1.3-2.5,1.5-3.5,0.4
			c-0.4-0.4-0.7-0.9-1-1.3c-0.4-0.6-0.3-1.4-0.4-2.1c-1.9-14.8-11.6-21.8-25.2-24.7c-10.7-2.2-21.4-2.6-32,0.6
			c-21.5,6.5-29.6,28.2-17.2,47c3.8,5.7,8.9,10.7,14.3,15c8.2,6.6,17,12.5,25.6,18.5c11.5,7.9,22.5,16.3,31.8,26.9
			c10.1,11.6,15.8,24.8,16.2,40.5c0.6,29.1-20.9,49.6-41.6,54.8c-22.3,5.6-44.6,5.1-66.8-1c-0.7-0.2-1.4-0.5-2-0.7
			c-9-3.2-9.9-4.1-9.6-13.4c0.3-9.8,1-19.6,1.7-29.4c0.1-1.4,1.2-3.7,2.2-3.9c2.5-0.4,3,1.8,3.1,3.8c0,0.5,0,1,0.1,1.4
			c1.7,17.8,9.4,27.3,26.5,32.4c11.2,3.4,22.6,3.9,34.1,1.3c33-7.4,34.9-42.4,21.5-58.6c-4.7-5.7-10.2-10.8-16-15.5
			c-9.7-7.9-19.9-15.1-29.7-22.7c-10.3-7.9-20-16.5-27.7-27c-9.5-13-12.4-27.4-8.8-43c4.3-18.9,17-30.2,34.8-35.9
			c7.7-2.5,15.9-3.7,23.9-4.4C711.3,1518,726.7,1522.5,743,1524.4"/>
	</g>
	<g class="st10">
		<defs>
			<rect id="SVGID_25_" y="0" width="1854.5" height="1894.9"/>
		</defs>
		<clipPath id="SVGID_26_" class="st11">
			<use xlink:href="#SVGID_25_"  style="overflow:visible;"/>
		</clipPath>
		<path class="st14" d="M811.2,1840.4c10-19.5,18.5-38.3,28-56.6c0.5,0.1,1,0.3,1.5,0.4c0.4,1.3,0.9,2.5,1.1,3.8
			c2,17.1,3.9,34.3,5.9,51.4c0.1,1,0.2,1.9,0.3,2.9c1.2,7.4,2.3,8.4,10,9.8c-3.8,1.9-8.1,2.1-18,0.6c-1.5-15.7-2.9-31.3-4.4-46.9
			l-1.5-0.4c-7.9,15.9-15.7,31.8-23.9,48.4c-5.3-4.8-7.1-10.6-9.9-15.6c-2.9-5.2-5.4-10.7-8.1-16c-2.6-5.2-5.2-10.5-7.9-15.7
			c-0.5,0.1-1,0.2-1.5,0.3c-1.1,13.3-2,26.5-3.3,39.8c-0.4,3.8,2.5,4.6,6.2,6.5h-19.7c5.8-2.2,6.8-5.7,7.2-10
			c1.6-16.5,3.7-32.9,5.6-49.3c0.4-3.2,1-6.4,1.5-10c3.7,0.7,4.1,3.4,5.1,5.3c7.3,14.3,14.5,28.7,21.7,43
			C808.1,1834.5,809.3,1836.8,811.2,1840.4"/>
	</g>
	<g class="st10">
		<defs>
			<rect id="SVGID_27_" y="0" width="1854.5" height="1894.9"/>
		</defs>
		<clipPath id="SVGID_28_" class="st11">
			<use xlink:href="#SVGID_27_"  style="display:none;overflow:visible;"/>
		</clipPath>
		<path class="st15" d="M1252.9,1853.1h-20.6c3.8-2,4.3-5.4,4.3-9.1c0-8.3,0-16.7,0-25.5h-38.9c0,9.5-0.1,19,0.1,28.5
			c0.1,3.8,3.5,4.5,6.5,5.9h-20.8c3.7-1.5,4.4-4.7,4.4-8.1c0.1-17,0.4-34,0.3-51c0-5.5-0.5-5.5-6.9-8.5h20.7
			c-4.5,3.8-4.6,3.8-4.6,9.7c0,5.9,0,11.9,0,18.3h39c0.9-7.7,0.6-15.3-0.2-22.8c-0.2-1.8-3.2-3.3-5-5.1h21c-5.4,1.8-6.1,4.8-6.1,8.6
			c0.1,16.3,0,32.6,0.2,48.9C1246.4,1850.1,1246.6,1850.1,1252.9,1853.1"/>
	</g>
	<g class="st10">
		<defs>
			<rect id="SVGID_29_" y="0" width="1854.5" height="1894.9"/>
		</defs>
		<clipPath id="SVGID_30_" class="st11">
			<use xlink:href="#SVGID_29_"  style="overflow:visible;"/>
		</clipPath>
		<path class="st16" d="M1320,1799.7c0,15.8-0.1,29.9,0.1,44c0.1,5.4,0.9,6,7.5,9.4h-19c5.4-2.1,5.2-6.6,5.2-11.1
			c0-16.3,0-32.6,0-48.9v-8.6c3.9-1,5.2,1.8,6.9,3.5c14.5,15,28.9,30.1,43.3,45.1c1.6,1.7,3.3,3.3,5.8,5.8c0.2-3,0.4-4.7,0.4-6.5
			c-0.3-12.2-0.6-24.4-1-36.7c-0.2-7.7-0.3-7.7-8.2-10.5h19.5c-4.7,3.6-4.8,3.6-4.8,9.5c-0.1,17.3-0.1,34.5-0.2,51.8
			c0,2.3-0.3,4.6-0.5,8.5c-4-3.3-7-5.5-9.6-8.2c-13.4-13.7-26.8-27.4-40.1-41.2C1323.7,1804.1,1322.2,1802.2,1320,1799.7"/>
	</g>
	<g class="st10">
		<defs>
			<rect id="SVGID_31_" y="0" width="1854.5" height="1894.9"/>
		</defs>
		<clipPath id="SVGID_32_" class="st11">
			<use xlink:href="#SVGID_31_"  style="display:none;overflow:visible;"/>
		</clipPath>
		<path class="st17" d="M1066.4,1854.4c-18.9,1.1-33.9-12-36.5-30c-2.8-19.2,11-38.1,30.2-40.3c5.4-0.6,11.1-0.6,16.4,0.5
			c14.7,2.8,24.8,13.1,27,26.4c2.6,15.4-3.8,30.2-16.4,38C1080.8,1853,1073.7,1854.9,1066.4,1854.4 M1094.3,1820.7
			c-0.1-6.6-1.2-12.9-4.3-18.8c-5.8-11.1-16.5-16.2-29.4-14c-11.5,2-18.8,10-20.4,22.6c-0.2,1.4-0.4,2.9-0.4,4.3
			c-0.1,10.9,2.2,20.9,10.5,28.7c11.7,11,37.8,10.6,42.7-13C1093.6,1827.3,1093.9,1824,1094.3,1820.7"/>
	</g>
	<g class="st10">
		<defs>
			<rect id="SVGID_33_" y="0" width="1854.5" height="1894.9"/>
		</defs>
		<clipPath id="SVGID_34_" class="st11">
			<use xlink:href="#SVGID_33_"  style="overflow:visible;"/>
		</clipPath>
		<path class="st18" d="M719,1854.4c-20.3,0-34.6-12-36.9-30.2c-2.3-18.4,9-35.2,27-39.5c9.8-2.3,19.6-1.6,28.8,2.8
			c12.2,5.9,18.3,16.1,18.5,29.4c0.2,14.2-5.7,25.6-18.2,32.9C732,1853.4,725.3,1855,719,1854.4 M720.6,1850.4
			c9.4,0.1,17.2-3.3,21.4-11.8c6.6-13.3,6.4-27-1.7-39.7c-6.5-10.2-16.5-13.2-28.2-11c-10.9,2.1-17,9.1-19.3,19.6
			c-2,9.1-1.3,18.1,2.8,26.6C700.6,1844.6,709,1850.2,720.6,1850.4"/>
	</g>
	<g class="st10">
		<defs>
			<rect id="SVGID_35_" y="0" width="1854.5" height="1894.9"/>
		</defs>
		<clipPath id="SVGID_36_" class="st11">
			<use xlink:href="#SVGID_35_"  style="overflow:visible;"/>
		</clipPath>
		<path class="st19" d="M1456.1,1786.5c-0.3,5-0.5,9.3-0.8,14.1c-0.8-0.5-1.6-0.7-1.7-1.1c-2.1-7.7-8.3-10.2-15.2-11.1
			c-4.5-0.6-9.1-0.7-13.6-0.3c-11.7,0.9-19.8,7.7-22.3,19c-2.2,9.9-1,19.5,4.5,28.4c6.7,10.8,21.2,17.1,33.7,14.6
			c5.3-1.1,6-2,6.1-7.8c0.1-4.3,0.1-8.6,0-12.9c-0.1-6.3-0.1-6.3-6.8-9.3h20.5c-4.2,1.8-4.7,5.3-4.7,9.1c0,5.5-0.2,11,0,16.5
			c0.1,3.8-1.6,5.8-5,6.7c-14.6,3.7-29,4-42.5-3.8c-12.2-7.1-17-18.6-16-32.3c1-13.7,7.7-24,20.8-29.4c10.1-4.1,20.7-3.5,31.2-2.4
			C1447.9,1784.8,1451.6,1785.7,1456.1,1786.5"/>
	</g>
	<g class="st10">
		<defs>
			<rect id="SVGID_37_" y="0" width="1854.5" height="1894.9"/>
		</defs>
		<clipPath id="SVGID_38_" class="st11">
			<use xlink:href="#SVGID_37_"  style="overflow:visible;"/>
		</clipPath>
		<path class="st20" d="M484.8,1785.3h20.9c-4.5,1.5-4.9,5.1-4.9,8.8c-0.1,11.3-0.1,22.5,0.1,33.8c0,2.4,0.5,4.8,1,7.1
			c2.1,9.8,8.8,15.4,18.7,15.4c10.3,0.1,16.8-4.9,19-14.9c0.9-3.9,1.1-8.1,1.2-12.1c0.2-9.4,0.1-18.7,0-28.1
			c-0.1-6.8-0.1-6.8-6.3-10h17.9c-4.3,1.9-4.4,5.4-4.4,9.1c0,9.1,0.2,18.2-0.1,27.3c-0.1,4.5-0.5,9.1-1.5,13.5
			c-2.6,11.6-11.8,18.9-23.8,19.1c-4,0.1-8.2,0.1-12.1-0.8c-11.1-2.5-17.8-10.6-18.5-22.7c-0.5-9.1-0.3-18.2-0.3-27.3
			c0-2.6,0-5.3-0.1-7.9C491.4,1788.7,491.2,1788.5,484.8,1785.3"/>
	</g>
	<g class="st10">
		<defs>
			<rect id="SVGID_39_" y="0" width="1854.5" height="1894.9"/>
		</defs>
		<clipPath id="SVGID_40_" class="st11">
			<use xlink:href="#SVGID_39_"  style="overflow:visible;"/>
		</clipPath>
		<path class="st21" d="M962.6,1786.7v15.5c-1-0.5-1.7-0.6-1.7-0.9c-0.9-7.7-5.9-11.2-12.8-12.6c-7.3-1.5-14.7-1.5-22.1,0.5
			c-7.3,2.1-12.3,6.8-14.6,13.8c-8.3,25,7.2,46.6,31.7,46.9c9.1,0.1,16.6-2.2,19-13.3c1.3,4.9,0.6,12.1-1.3,14.3
			c-1,1.1-2.7,2.1-4.2,2.3c-12.4,1.9-24.9,2.6-36.7-2.7c-16.8-7.5-21.7-22.9-20.1-36.4c2-16.1,13.5-27.6,29.4-30.1
			C937.9,1782.8,953,1783.9,962.6,1786.7"/>
	</g>
	<g class="st10">
		<defs>
			<rect id="SVGID_41_" y="0" width="1854.5" height="1894.9"/>
		</defs>
		<clipPath id="SVGID_42_" class="st11">
			<use xlink:href="#SVGID_41_"  style="overflow:visible;"/>
		</clipPath>
		<path class="st22" d="M474.6,1837.9c-0.7,3.7-1,7.5-2.2,11.1c-0.6,1.7-2.7,3.7-4.3,4c-14.1,2.5-28.2,3.2-41.2-4.4
			c-13.1-7.7-19-22.3-15.7-37.8c3.1-14.6,14.8-25.2,30.1-26.8c10.8-1.1,21.5-0.1,32.8,2.5c-0.2,5.1-0.5,10.3-0.8,16.2
			c-1-0.9-1.7-1.2-1.8-1.6c-0.9-7.7-6.1-11.6-12.9-12.3c-7-0.8-14.3-0.6-21.3,0.5c-7.6,1.2-12.5,6.7-15.2,13.9
			c-9.5,24.9,9.6,49.4,36.1,46.7c7.9-0.8,12.6-4.8,14.7-12.5C473.5,1837.5,474.1,1837.7,474.6,1837.9"/>
	</g>
	<g class="st10">
		<defs>
			<rect id="SVGID_43_" y="0" width="1854.5" height="1894.9"/>
		</defs>
		<clipPath id="SVGID_44_" class="st11">
			<use xlink:href="#SVGID_43_"  style="overflow:visible;"/>
		</clipPath>
		<path class="st23" d="M566.5,1838.8c1.4,2.6,2.3,5.7,4.2,7.8c4.4,4.9,16.1,5.3,21.3,1.1c4.9-3.9,5.6-11.6,1.2-16.7
			c-2.5-2.9-5.7-5.1-8.6-7.6c-4.2-3.6-8.7-6.8-12.6-10.7c-4.9-4.9-6.8-11-4.3-17.8c2.5-7.2,8.2-10.6,15.4-11.1
			c5.9-0.4,11.8,0.3,18.1,0.5v11.3c-3.7-7.5-10-8.9-17.3-8.1c-4.3,0.4-8,2.1-9.5,6.5c-1.5,4.3-0.1,8.2,3.1,11.1c2.8,2.6,6,4.8,9,7.1
			c3.9,3.1,8.2,5.9,11.7,9.5c5.9,6,7.8,13.2,4.4,21.1c-3.3,7.5-9.6,11.1-17.7,11.2c-5,0.1-10-0.5-15-1c-3.3-0.3-5.1-2.3-4.8-5.9
			c0.2-2.8,0.3-5.7,0.4-8.6C565.8,1838.9,566.2,1838.8,566.5,1838.8"/>
	</g>
	<g class="st10">
		<defs>
			<rect id="SVGID_45_" y="0" width="1854.5" height="1894.9"/>
		</defs>
		<clipPath id="SVGID_46_" class="st11">
			<use xlink:href="#SVGID_45_"  style="overflow:visible;"/>
		</clipPath>
		<path class="st24" d="M618.1,1784.5c9.9,0.2,19.2,0.5,28.5,0.6c9.3,0.1,18.7,0,28.6,0v12.4c-6-12.1-15.5-6.5-23.2-8.2
			c-0.5,1.2-1.1,1.8-1.1,2.5c0,17.3-0.1,34.5,0.2,51.8c0.1,6.7,0.5,6.7,8.1,9c-4.4,1.2-7.8,0.5-11.2,0.5c-3.6,0-7.2,0-10,0
			c1.1-2.8,3.2-5.5,3.3-8.3c0.3-17.7,0.2-35.5,0.1-53.2c0-0.4-0.3-0.8-0.9-2c-8,1.1-17.3-3.7-25,5.2
			C616.6,1791.3,617.4,1787.8,618.1,1784.5"/>
	</g>
	<g class="st10">
		<defs>
			<rect id="SVGID_47_" y="0" width="1854.5" height="1894.9"/>
		</defs>
		<clipPath id="SVGID_48_" class="st11">
			<use xlink:href="#SVGID_47_"  style="overflow:visible;"/>
		</clipPath>
		<path class="st25" d="M1151.4,1853.1h-20.7c3.7-2.1,4.5-5.6,4.5-9.3c0.1-17.7,0-35.4,0-53.1c-10.2-3-18.6-1.6-26,4.8
			c0.9-4.2,1.6-7.6,2.3-10.9h57.2v12.1c-6.4-10.8-15.7-5.9-23.3-7.1c-0.6,1.1-1,1.5-1,1.9c0,17.5-0.1,35,0,52.5
			C1144.5,1848.3,1145.8,1852.1,1151.4,1853.1"/>
	</g>
	<g class="st10">
		<defs>
			<rect id="SVGID_49_" y="0" width="1854.5" height="1894.9"/>
		</defs>
		<clipPath id="SVGID_50_" class="st11">
			<use xlink:href="#SVGID_49_"  style="overflow:visible;"/>
		</clipPath>
		<path class="st26" d="M979.9,1852.2c4.8-0.7,5.1-4.3,5.4-7.5c0.4-5.2,0.4-10.5,0.4-15.8c0-11.5,0-23,0-34.5c0-4-0.4-7.8-5.6-9h20
			c-5.3,3.2-5.4,3.2-5.4,9.4c0,14.1-0.1,28.2,0.1,42.4c0.1,10.7,1.4,11.9,11.9,12.4c0.5,0,1,0,1.4,0c9,0.1,10.6-0.7,15.5-8.3
			c0.6,3.9,0.3,7.2-1.1,10c-0.6,1.3-3,2.3-4.7,2.4c-3.6,0.3-7.2,0-10.8,0c-8.8,0-17.5,0-26.3,0L979.9,1852.2z"/>
	</g>
	<g class="st10">
		<defs>
			<rect id="SVGID_51_" y="0" width="1854.5" height="1894.9"/>
		</defs>
		<clipPath id="SVGID_52_" class="st11">
			<use xlink:href="#SVGID_51_"  style="overflow:visible;"/>
		</clipPath>
		<path class="st27" d="M1271.4,1852.9c4.1-1.6,4.5-5.2,4.5-8.8c0.2-16.8,0.3-33.6,0.3-50.4c0-3.6-0.5-7.2-4.9-8.5h18.3
			c-3.6,1.9-4.4,4.8-4.4,8.4c0.1,16.6,0.1,33.1,0.1,49.7c0,4.6,0.7,8.8,6.8,9.5L1271.4,1852.9L1271.4,1852.9z"/>
	</g>
	<g class="st10">
		<defs>
			<rect id="SVGID_53_" y="0" width="1854.5" height="1894.9"/>
		</defs>
		<clipPath id="SVGID_54_" class="st11">
			<use xlink:href="#SVGID_53_"  style="overflow:visible;"/>
		</clipPath>
		<path class="st28" d="M1524.7,1820.9h-39.7C1491.5,1819,1516.4,1818.7,1524.7,1820.9"/>
	</g>
	<g class="st10">
		<defs>
			<rect id="SVGID_55_" y="0" width="1854.5" height="1894.9"/>
		</defs>
		<clipPath id="SVGID_56_" class="st11">
			<use xlink:href="#SVGID_55_"  style="overflow:visible;"/>
		</clipPath>
		<path class="st29" d="M344.7,1819.8H382c-1.9,0.9-2.4,1.4-2.9,1.4c-11.4,0-22.8,0-34.1,0C344.9,1820.7,344.8,1820.3,344.7,1819.8"
			/>
	</g>
	<g>
		<defs>
			<rect id="SVGID_57_" y="0" width="1854.5" height="1894.9"/>
		</defs>
		<clipPath id="SVGID_58_">
			<use xlink:href="#SVGID_57_"  style="overflow:visible;"/>
		</clipPath>
		<path class="st30" d="M927.6,523.5c137.4-0.8,251.9,111.7,251.6,251.7c-0.3,139.1-112.7,251.2-252.3,251.2
			c-138.5-0.1-250.9-112.9-250.9-251.8C676.1,634.5,790.8,522.7,927.6,523.5 M927.5,911.2c20.8,0.1,38-17.2,38-37.9
			c0-20.8-17.2-37.9-38.1-37.7c-20.7,0.1-37.4,16.8-37.6,37.5C889.6,893.9,906.7,911.2,927.5,911.2 M867.9,776.2
			c-0.1-20.9-17.3-37.9-38.1-37.6c-20.6,0.3-37.2,17.1-37.3,37.8c0,21,16.8,38,37.7,38C851.2,814.3,868,797.3,867.9,776.2
			 M1063.7,776.3c0-20.9-17.2-38-38-37.8c-20.8,0.2-37.5,17.3-37.4,38.4c0.2,20.7,16.9,37.3,37.6,37.4
			C1046.7,814.4,1063.7,797.3,1063.7,776.3 M927.6,715.7c21.1,0,38-16.9,37.9-37.8c-0.1-20.8-17.2-37.7-38.2-37.6
			c-20.6,0.1-37.3,16.8-37.5,37.5C889.6,698.8,906.6,715.8,927.6,715.7"/>
	</g>
</g>
</svg>
