<?xml version="1.0" encoding="utf-8"?>
<!-- Generator: Adobe Illustrator 19.2.1, SVG Export Plug-In . SVG Version: 6.00 Build 0)  -->
<!DOCTYPE svg PUBLIC "-//W3C//DTD SVG 1.1//EN" "http://www.w3.org/Graphics/SVG/1.1/DTD/svg11.dtd">
<svg version="1.1" id="Layer_1" xmlns="http://www.w3.org/2000/svg" xmlns:xlink="http://www.w3.org/1999/xlink" x="0px" y="0px"
	 viewBox="0 0 205.3 65.5" enable-background="new 0 0 205.3 65.5" xml:space="preserve">
<g>
	<g>
		<g>
			<path fill="#05CE7C" d="M45.5,41.7l0.4,0.3c0.7,0.5,1.3,1.1,2,1.7c2.5,2.5,4.3,5.7,5.2,9.1c-3.4-0.9-6.6-2.7-9.1-5.2
				c-0.6-0.6-1.2-1.3-1.7-2L42,45.3l-0.1,0.5c-0.1,0.4-0.1,0.8-0.1,1.3c0,1.6,0.8,3.2,2.3,4.7c2.2,2.2,5.3,3.6,9.9,4.4
				c0.9,0.2,1.8,0.3,2.7,0.3l0.3,0l0-0.3c-0.1-0.9-0.2-1.8-0.3-2.7c-0.8-4.6-2.2-7.7-4.4-9.9c-1.9-1.9-3.9-2.6-6-2.1L45.5,41.7z"/>
			<path fill="#05CE7C" d="M20.2,23.5l-0.4-0.3c-0.7-0.5-1.3-1.1-2-1.7c-2.5-2.5-4.3-5.7-5.2-9.1c3.4,0.9,6.6,2.7,9.1,5.2
				c0.6,0.6,1.2,1.3,1.7,2l0.3,0.4l0.1-0.5C24,19,24,18.6,24,18.2c0-1.6-0.8-3.2-2.3-4.7c-2.2-2.2-5.3-3.6-9.9-4.4
				C11,8.8,10.1,8.7,9.2,8.6l-0.3,0l0,0.3c0.1,0.9,0.2,1.8,0.3,2.7c0.8,4.6,2.2,7.7,4.4,9.9c1.9,1.9,3.9,2.6,6,2.1L20.2,23.5z"/>
		</g>
		<path fill="#05CE7C" d="M23.6,45.4l-0.3,0.4c-0.5,0.7-1.1,1.3-1.7,2c-2.5,2.5-5.7,4.3-9.1,5.2c0.9-3.4,2.7-6.6,5.2-9.1
			c0.6-0.6,1.3-1.2,2-1.7l0.4-0.3l-0.5-0.1c-0.4-0.1-0.8-0.1-1.3-0.1c-1.6,0-3.2,0.8-4.7,2.3c-2.2,2.2-3.6,5.3-4.4,9.9
			c-0.2,0.9-0.3,1.8-0.3,2.7l0,0.3l0.3,0c0.9-0.1,1.8-0.2,2.7-0.3c4.6-0.8,7.7-2.2,9.9-4.4c1.9-1.9,2.6-3.9,2.1-6L23.6,45.4z"/>
		<path fill="#05CE7C" d="M0.2,33.2c0.7,0.6,1.4,1.1,2.1,1.6l0.1,0.1c6.5,4.5,15,5.3,22.2,2.1l0.2-0.1l0-0.1c-0.2-0.5-0.8-1-0.8-1
			c-0.7-0.5-1.4-0.8-2.3-0.7c-0.6,0-1.1,0.1-1.6,0.3c-1.3,0.3-2.8,0.5-4.7,0.5c-3.6,0-7.1-1-10.1-2.8c2.2-1.3,4.6-2.2,7.2-2.6
			c1-0.1,1.9-0.2,2.9-0.2c3.7,0,7.3,1,10.4,3c0.8,0.5,1.6,1.1,2.3,1.7c0.4,0.4,0.9,0.8,1.3,1.2c0.4,0.4,0.8,0.8,1.2,1.3
			c0.6,0.7,1.2,1.5,1.7,2.3c1.9,3.1,3,6.7,3,10.4c0,1-0.1,1.9-0.2,2.9c-0.4,2.6-1.2,5-2.6,7.2c-1.8-3-2.8-6.5-2.8-10.1
			c0-1.9,0.1-3.4,0.5-4.7c0.1-0.5,0.2-1.1,0.3-1.6c0-0.9-0.2-1.6-0.7-2.3c0,0-0.5-0.6-1-0.8l-0.1,0l-0.1,0.2
			c-3.2,7.2-2.3,15.7,2.1,22.2l0.1,0.1c0.5,0.7,1,1.4,1.6,2.1l0.2,0.2l0.2-0.2c0.6-0.6,1.1-1.3,1.6-2c0,0,0.1-0.1,0.1-0.1
			c2.4-3.6,3.8-7.7,4-12.1c0.2-5-1.2-9.9-4-14l0,0c-0.5-0.7-1.1-1.5-1.7-2.2c-0.3-0.3-0.5-0.6-0.8-0.9l0,0l-0.2-0.2l-0.1,0.1
			l0.1-0.1l-0.2-0.2l0,0c-0.3-0.3-0.6-0.5-0.9-0.8c-0.7-0.6-1.4-1.2-2.2-1.7l0,0c-4.1-2.8-9-4.2-14-4c-4.3,0.2-8.5,1.6-12.1,4
			c0,0-0.1,0.1-0.1,0.1c-0.7,0.5-1.4,1-2,1.6L0,33L0.2,33.2z"/>
		<path fill="#05CE7C" d="M41.8,20l0.3-0.4c0.5-0.7,1.1-1.3,1.7-2c2.5-2.5,5.7-4.3,9.1-5.2c-0.9,3.4-2.7,6.6-5.2,9.1
			c-0.6,0.6-1.3,1.2-2,1.7l-0.4,0.3l0.5,0.1c0.4,0.1,0.8,0.1,1.3,0.1c1.6,0,3.2-0.8,4.7-2.3c2.2-2.2,3.6-5.3,4.4-9.9
			c0.2-0.9,0.3-1.8,0.3-2.7l0-0.3l-0.3,0c-0.9,0.1-1.8,0.2-2.7,0.3c-4.6,0.8-7.7,2.2-9.9,4.4c-1.9,1.9-2.6,3.9-2.1,6L41.8,20z"/>
		<path fill="#05CE7C" d="M65.3,32.2c-0.7-0.6-1.4-1.1-2.1-1.6l-0.1-0.1c-6.5-4.5-15-5.3-22.2-2.1l-0.2,0.1l0,0.1
			c0.2,0.5,0.8,1,0.8,1c0.7,0.5,1.4,0.8,2.3,0.7c0.6,0,1.1-0.1,1.6-0.3c1.3-0.3,2.8-0.5,4.7-0.5c3.6,0,7.1,1,10.1,2.8
			C58,33.7,55.6,34.6,53,35c-1,0.1-1.9,0.2-2.9,0.2c-3.7,0-7.3-1-10.4-3c-0.8-0.5-1.6-1.1-2.3-1.7c-0.4-0.4-0.9-0.8-1.3-1.2
			c-0.4-0.4-0.8-0.8-1.2-1.3c-0.6-0.7-1.2-1.5-1.7-2.3c-1.9-3.1-3-6.7-3-10.4c0-1,0.1-1.9,0.2-2.9c0.4-2.6,1.2-5,2.6-7.2
			c1.8,3,2.8,6.5,2.8,10.1c0,1.9-0.1,3.4-0.5,4.7c-0.1,0.5-0.2,1.1-0.3,1.6c0,0.9,0.2,1.6,0.7,2.3c0,0,0.5,0.6,1,0.8l0.1,0l0.1-0.2
			c3.2-7.2,2.3-15.7-2.1-22.2l-0.1-0.1c-0.5-0.7-1-1.4-1.6-2.1L33,0l-0.2,0.2c-0.6,0.6-1.1,1.3-1.6,2c0,0-0.1,0.1-0.1,0.1
			c-2.4,3.6-3.8,7.7-4,12.1c-0.2,5,1.2,9.9,4,14l0,0c0.5,0.7,1.1,1.5,1.7,2.2c0.3,0.3,0.5,0.6,0.8,0.9l0,0l0.2,0.2l0.1-0.1l-0.1,0.1
			l0.2,0.2l0,0c0.3,0.3,0.6,0.5,0.9,0.8c0.7,0.6,1.4,1.2,2.2,1.7l0,0c4.1,2.8,9,4.2,14,4c4.3-0.2,8.5-1.6,12.1-4
			c0,0,0.1-0.1,0.1-0.1c0.7-0.5,1.4-1,2-1.6l0.2-0.2L65.3,32.2z"/>
	</g>
	<g>
		<g>
			<g>
				<path d="M203.2,52.8c-0.3,0-0.6-0.1-0.9-0.2c-0.3-0.1-0.5-0.3-0.7-0.5c-0.2-0.2-0.4-0.5-0.5-0.7c-0.1-0.3-0.2-0.6-0.2-0.9
					c0-0.3,0.1-0.6,0.2-0.9c0.1-0.3,0.3-0.5,0.5-0.8c0.2-0.2,0.4-0.4,0.7-0.5c0.3-0.1,0.6-0.2,0.9-0.2c0.3,0,0.6,0.1,0.9,0.2
					c0.3,0.1,0.5,0.3,0.7,0.5c0.2,0.2,0.4,0.5,0.5,0.8c0.1,0.3,0.2,0.6,0.2,0.9c0,0.3-0.1,0.6-0.2,0.9c-0.1,0.3-0.3,0.5-0.5,0.7
					c-0.2,0.2-0.4,0.4-0.7,0.5C203.8,52.8,203.5,52.8,203.2,52.8z M203.2,52.4c0.2,0,0.5-0.1,0.7-0.2c0.2-0.1,0.4-0.2,0.6-0.4
					c0.2-0.2,0.3-0.4,0.4-0.6c0.1-0.2,0.1-0.5,0.1-0.8c0-0.3,0-0.5-0.1-0.8c-0.1-0.2-0.2-0.4-0.4-0.6c-0.2-0.2-0.3-0.3-0.6-0.4
					c-0.2-0.1-0.4-0.2-0.7-0.2c-0.2,0-0.5,0.1-0.7,0.2c-0.2,0.1-0.4,0.2-0.6,0.4c-0.2,0.2-0.3,0.4-0.4,0.6c-0.1,0.2-0.1,0.5-0.1,0.8
					c0,0.3,0,0.5,0.1,0.8c0.1,0.2,0.2,0.4,0.4,0.6c0.2,0.2,0.3,0.3,0.6,0.4C202.7,52.4,202.9,52.4,203.2,52.4z M202.4,49.3
					c0.2,0,0.4,0,0.7,0c0.3,0,0.6,0.1,0.8,0.2c0.2,0.1,0.2,0.3,0.2,0.6c0,0.1,0,0.3-0.1,0.4c-0.1,0.1-0.2,0.2-0.3,0.3l0.5,0.9h-0.6
					l-0.4-0.7h-0.2v0.7h-0.6V49.3z M202.9,50.4c0,0,0.1,0,0.2,0c0.1,0,0.2,0,0.3-0.1c0.1-0.1,0.1-0.1,0.1-0.2c0-0.2-0.1-0.3-0.4-0.3
					c-0.1,0-0.1,0-0.2,0V50.4z"/>
			</g>
			<polygon points="72.4,18.8 91.4,18.8 70.5,53 71.3,52.9 101.4,52.9 101.4,46.7 81.6,46.7 101.9,13.3 102.4,12.5 72.4,12.5 			"/>
			<rect x="113.6" y="12.5" width="6.5" height="40.4"/>
			<path d="M146.1,39.5c0,2.6-0.5,4.6-1.4,5.9c-0.9,1.3-2.4,1.9-4.5,1.9c-1.2,0-2.4-0.2-3.6-0.6c-1.2-0.4-2.3-0.9-3.2-1.6l-2.5,5.6
				c1.4,1,2.8,1.7,4.3,2.2c1.5,0.5,3.2,0.7,5.1,0.7c2.2,0,4-0.3,5.6-1c1.5-0.7,2.8-1.6,3.8-2.8c1-1.2,1.7-2.7,2.2-4.3
				c0.5-1.7,0.7-3.5,0.7-5.5V12.5h-6.5V39.5z"/>
			<path d="M191.9,52.9l-3.8-9h-7.8h-7.8l-3.8,9h-6.9l18.7-41.1L199,52.9H191.9z M180.3,25.4l-5.6,13.2h5.6h5.6L180.3,25.4z"/>
		</g>
	</g>
</g>
</svg>
